<svg xmlns="http://www.w3.org/2000/svg" xmlns:xlink="http://www.w3.org/1999/xlink" width="500" zoomAndPan="magnify" viewBox="0 0 375 374.999991" height="500" preserveAspectRatio="xMidYMid meet" version="1.0"><defs><clipPath id="id1"><path d="M 3.347656 23 L 371.597656 23 L 371.597656 351 L 3.347656 351 Z M 3.347656 23 " clip-rule="nonzero"/></clipPath></defs><g clip-path="url(#id1)"><path fill="#00d8ff" d="M 305.878906 129.84375 C 302.074219 128.53125 298.125 127.292969 294.050781 126.117188 C 294.722656 123.390625 295.339844 120.703125 295.886719 118.054688 C 304.832031 74.625 298.988281 39.636719 278.988281 28.117188 C 259.808594 17.070312 228.457031 28.585938 196.789062 56.121094 C 193.746094 58.769531 190.6875 61.570312 187.644531 64.507812 C 185.605469 62.566406 183.582031 60.6875 181.558594 58.890625 C 148.367188 29.449219 115.097656 17.042969 95.125 28.597656 C 75.96875 39.675781 70.296875 72.566406 78.359375 113.726562 C 79.136719 117.703125 80.046875 121.765625 81.074219 125.890625 C 76.367188 127.226562 71.824219 128.648438 67.476562 130.164062 C 28.566406 143.71875 3.714844 164.960938 3.714844 186.996094 C 3.714844 209.742188 30.390625 232.574219 70.917969 246.417969 C 74.117188 247.507812 77.433594 248.539062 80.855469 249.515625 C 79.746094 253.976562 78.78125 258.351562 77.96875 262.625 C 70.28125 303.070312 76.285156 335.183594 95.386719 346.1875 C 115.121094 357.558594 148.238281 345.871094 180.480469 317.714844 C 183.035156 315.492188 185.589844 313.125 188.144531 310.660156 C 191.476562 313.84375 194.792969 316.867188 198.082031 319.707031 C 229.320312 346.558594 260.167969 357.402344 279.25 346.371094 C 298.957031 334.96875 305.375 300.460938 297.050781 258.492188 C 296.417969 255.28125 295.671875 252.011719 294.851562 248.683594 C 297.179688 247.996094 299.460938 247.277344 301.6875 246.546875 C 343.820312 232.589844 371.226562 210.058594 371.226562 186.996094 C 371.226562 164.878906 345.574219 143.496094 305.878906 129.84375 Z M 296.75 231.65625 C 294.738281 232.316406 292.671875 232.964844 290.574219 233.578125 C 285.921875 218.878906 279.648438 203.230469 271.957031 187.066406 C 279.292969 171.289062 285.320312 155.847656 289.84375 141.230469 C 293.605469 142.320312 297.25 143.464844 300.769531 144.675781 C 334.777344 156.371094 355.519531 173.667969 355.519531 186.996094 C 355.519531 201.179688 333.125 219.609375 296.75 231.65625 Z M 281.644531 261.535156 C 285.335938 280.09375 285.851562 296.875 283.410156 310 C 281.230469 321.789062 276.820312 329.648438 271.382812 332.789062 C 259.796875 339.488281 235.03125 330.78125 208.332031 307.820312 C 205.257812 305.179688 202.171875 302.367188 199.085938 299.398438 C 209.4375 288.082031 219.785156 274.929688 229.894531 260.316406 C 247.652344 258.75 264.433594 256.171875 279.664062 252.65625 C 280.410156 255.683594 281.070312 258.636719 281.644531 261.535156 Z M 129.015625 331.628906 C 117.699219 335.628906 108.6875 335.746094 103.238281 332.601562 C 91.644531 325.917969 86.828125 300.132812 93.398438 265.550781 C 94.152344 261.589844 95.050781 257.519531 96.082031 253.359375 C 111.136719 256.6875 127.800781 259.082031 145.609375 260.515625 C 155.777344 274.816406 166.429688 287.953125 177.15625 299.457031 C 174.816406 301.722656 172.476562 303.875 170.148438 305.898438 C 155.894531 318.359375 141.605469 327.195312 129.015625 331.628906 Z M 76.003906 231.570312 C 58.082031 225.449219 43.28125 217.5 33.136719 208.808594 C 24.023438 201.023438 19.421875 193.277344 19.421875 186.996094 C 19.421875 173.625 39.371094 156.566406 72.648438 144.976562 C 76.6875 143.570312 80.910156 142.246094 85.296875 141 C 89.898438 155.945312 95.929688 171.574219 103.210938 187.367188 C 95.835938 203.402344 89.714844 219.28125 85.074219 234.410156 C 81.945312 233.507812 78.917969 232.5625 76.003906 231.570312 Z M 93.773438 110.714844 C 86.867188 75.449219 91.453125 48.847656 102.996094 42.171875 C 115.289062 35.058594 142.476562 45.199219 171.125 70.621094 C 172.964844 72.246094 174.800781 73.945312 176.652344 75.703125 C 165.972656 87.160156 155.421875 100.199219 145.339844 114.414062 C 128.054688 116.015625 111.511719 118.585938 96.296875 122.027344 C 95.34375 118.183594 94.496094 114.40625 93.773438 110.714844 Z M 252.289062 149.824219 C 248.65625 143.550781 244.925781 137.421875 241.121094 131.460938 C 252.847656 132.941406 264.074219 134.910156 274.628906 137.316406 C 271.46875 147.457031 267.519531 158.058594 262.871094 168.9375 C 259.539062 162.609375 256.007812 156.234375 252.289062 149.824219 Z M 187.644531 86.914062 C 194.894531 94.753906 202.144531 103.503906 209.277344 113 C 202.085938 112.660156 194.808594 112.484375 187.472656 112.484375 C 180.207031 112.484375 172.988281 112.65625 165.839844 112.992188 C 172.972656 103.582031 180.292969 94.84375 187.644531 86.914062 Z M 122.585938 149.933594 C 118.953125 156.226562 115.492188 162.566406 112.210938 168.921875 C 107.640625 158.085938 103.730469 147.433594 100.535156 137.148438 C 111.019531 134.804688 122.203125 132.886719 133.855469 131.433594 C 129.992188 137.449219 126.230469 143.621094 122.585938 149.933594 Z M 134.1875 243.664062 C 122.152344 242.328125 110.800781 240.507812 100.316406 238.226562 C 103.5625 227.757812 107.5625 216.886719 112.230469 205.8125 C 115.519531 212.164062 118.992188 218.503906 122.648438 224.816406 C 126.371094 231.242188 130.230469 237.523438 134.1875 243.664062 Z M 188.074219 288.167969 C 180.640625 280.152344 173.21875 271.273438 165.96875 261.734375 C 173.003906 262.007812 180.179688 262.152344 187.472656 262.152344 C 194.964844 262.152344 202.375 261.980469 209.652344 261.664062 C 202.503906 271.375 195.269531 280.265625 188.074219 288.167969 Z M 263.011719 205.253906 C 267.921875 216.441406 272.070312 227.253906 275.359375 237.554688 C 264.707031 239.976562 253.195312 241.925781 241.078125 243.390625 C 244.894531 237.351562 248.65625 231.113281 252.359375 224.703125 C 256.109375 218.21875 259.652344 211.722656 263.011719 205.253906 Z M 238.75 216.871094 C 233.007812 226.824219 227.109375 236.320312 221.121094 245.285156 C 210.226562 246.058594 198.957031 246.460938 187.472656 246.460938 C 176.03125 246.460938 164.90625 246.117188 154.195312 245.414062 C 147.964844 236.332031 141.941406 226.808594 136.234375 216.957031 L 136.238281 216.957031 C 130.542969 207.132812 125.304688 197.222656 120.554688 187.367188 C 125.300781 177.5 130.527344 167.574219 136.1875 157.769531 C 141.863281 147.9375 147.835938 138.457031 154.007812 129.425781 C 164.933594 128.601562 176.144531 128.167969 187.472656 128.167969 C 198.855469 128.167969 210.070312 128.605469 220.992188 129.4375 C 227.082031 138.398438 233.007812 147.851562 238.707031 157.683594 C 244.464844 167.632812 249.761719 177.484375 254.542969 187.152344 C 249.777344 196.976562 244.496094 206.929688 238.75 216.871094 Z M 271.140625 41.699219 C 283.457031 48.792969 288.238281 77.386719 280.5 114.886719 C 280.011719 117.277344 279.449219 119.714844 278.847656 122.1875 C 263.601562 118.671875 247.050781 116.054688 229.722656 114.429688 C 219.617188 100.0625 209.148438 87 198.640625 75.695312 C 201.46875 72.980469 204.296875 70.390625 207.097656 67.949219 C 234.230469 44.359375 259.597656 35.042969 271.140625 41.699219 Z M 187.472656 154.199219 C 205.589844 154.199219 220.289062 168.875 220.289062 186.988281 C 220.289062 205.089844 205.589844 219.777344 187.472656 219.777344 C 169.355469 219.777344 154.65625 205.089844 154.65625 186.988281 C 154.65625 168.875 169.355469 154.199219 187.472656 154.199219 Z M 187.472656 154.199219 " fill-opacity="1" fill-rule="nonzero"/></g></svg>